<svg width="117" height="73" viewBox="0 0 117 73" fill="none" xmlns="http://www.w3.org/2000/svg">
<path fill-rule="evenodd" clip-rule="evenodd" d="M116.182 35.8304C115.719 36.881 114.873 37.8757 114.178 38.7938C112.467 41.0576 110.666 43.2284 108.739 45.3109C101.135 53.527 92.1956 60.5833 82.0132 65.3178C78.9336 66.7518 75.7517 67.9279 72.4839 68.8459C71.3171 69.1737 69.8901 69.8175 68.6861 69.7384C69.5693 68.5252 70.7454 67.47 71.7843 66.3869C73.4531 64.6484 75.1079 62.8983 76.7814 61.1644C78.2038 59.6862 79.9795 57.3504 81.5971 56.2045C82.4222 55.6188 83.4472 55.2702 84.3467 54.8146C86.0527 53.9547 87.7238 53.011 89.3345 51.9884C93.7226 49.2016 97.5576 45.799 101.137 42.0547C102.936 40.1744 104.935 38.1082 106.213 35.8304C105.09 33.548 101.458 29.9687 99.5238 28.1837C92.0492 21.2738 82.7221 16.1396 72.4211 15.3215C69.3741 15.0775 66.3317 15.1518 63.3032 15.5748C61.911 15.7701 59.0406 16.6928 57.846 16.4859C58.1202 14.508 59.2521 12.4604 60.3096 10.787C60.7698 10.0572 61.5275 9.32735 61.7716 8.53247C59.3869 10.006 57.2091 12.5301 55.6961 14.8683C55.1592 15.698 54.613 17.2762 53.9645 17.9153C53.5601 18.3151 52.7978 18.422 52.2795 18.6382C51.2266 19.0751 50.1877 19.5702 49.1604 20.0652C46.699 21.2529 44.3632 22.6382 41.9855 23.9769C41.0279 24.5161 39.9867 25.3575 38.9477 25.6317C39.3173 21.662 40.5514 17.7805 42.1482 14.1431C42.6595 12.9764 44.5445 10.1339 44.6002 9.1879C41.0419 12.737 38.2412 17.0879 36.584 21.8456C36.1285 23.1518 35.6892 24.4882 35.4056 25.8433C35.2453 26.6009 35.2569 27.7026 34.8501 28.3743C34.5922 28.7973 33.8623 29.0855 33.4603 29.3598C32.426 30.0664 31.408 30.7938 30.3667 31.4865C29.0698 32.3511 27.8356 33.3086 26.5527 34.1942C26.0321 34.5544 25.451 35.161 24.8211 35.1657C24.254 31.9234 24.7723 27.7677 25.4022 24.5394C25.6718 23.1565 26.5318 21.3715 26.3412 20.0443C24.2633 23.705 22.6317 27.5376 21.9089 31.7026C21.551 33.7758 21.6997 35.9652 21.2953 38.0036C18.3412 40.2395 15.3871 42.4754 12.4307 44.7113C11.5824 41.2482 11.6475 37.3923 12.0426 33.8688C12.3982 30.7195 13.1233 27.7073 14.2924 24.7555C20.5864 8.84624 36.5305 1.06475 52.8582 0.0955548C73.2067 -1.11304 92.6488 9.27622 106.376 23.7166C109.92 27.4446 113.551 31.3819 116.182 35.8304ZM62.2062 72.5066C57.5392 68.2835 53.3207 63.5026 48.921 59.0075C45.6973 55.7141 41.7043 52.3765 39.1895 48.5207C38.2226 47.0378 37.3696 45.4736 36.7397 43.8164C36.3493 42.7822 36.2075 41.5782 35.6892 40.6253C32.5492 43.0123 29.4115 45.3992 26.2714 47.7862C29.5393 51.3887 34.4992 54.4474 38.9152 56.4137C40.2888 57.0273 41.7043 57.5409 43.1174 58.0546C43.7844 58.2963 44.5979 58.4288 45.1952 58.8239C46.3387 59.5816 48.5305 62.2126 49.5973 63.3306C51.7983 65.6362 54.6362 68.1347 56.5537 70.6077C54.5386 71.1516 49.1673 70.1754 46.9454 69.7129C39.4637 68.1556 32.2424 65.2829 25.9623 60.8739C24.2471 59.6676 22.5457 58.3405 20.9839 56.9436C20.0518 56.1092 19.1617 55.0145 18.0832 54.4009C14.4714 57.2411 11.8636 61.3132 10.0205 65.4665C9.34183 66.9959 9.10477 69.0226 8.34707 70.3892C7.18264 70.3846 5.98567 70.1638 4.88864 69.771C3.54291 69.2875 0.300629 67.5467 0.0263707 65.9872C-0.164215 64.8971 0.723638 63.4677 1.23032 62.5589C2.68993 59.9442 4.42379 57.5828 6.41332 55.3446C12.5795 48.4091 20.3749 43.0773 27.8194 37.634C32.4492 34.2476 37.0349 30.5568 41.9925 27.6538C42.0645 28.5393 41.5206 29.5248 41.2906 30.4359C41.0395 31.4237 40.8606 32.4278 40.742 33.4411C40.2307 37.8571 41.3649 42.5916 43.7612 46.3359C52.068 59.3259 71.0405 60.2928 80.0841 47.5143C81.5088 45.4992 82.6035 43.2795 83.2683 40.8972C84.0027 38.2755 84.1701 35.4841 83.8052 32.788C83.3031 29.0832 81.7575 25.5504 79.4635 22.6033C78.5129 21.3854 77.3229 20.4394 76.2817 19.3122C77.5693 19.0891 79.2497 19.8119 80.5001 20.2326C81.9504 20.7207 83.7006 21.1576 84.8975 22.1547C86.055 23.1169 86.8731 24.7485 87.4681 26.1036C89.2159 30.0733 89.6296 34.6009 89.0044 38.8682C87.9585 45.9966 83.661 50.7008 78.8499 55.6304C76.0237 58.5264 73.2346 61.4572 70.3898 64.3393C68.6629 66.0894 66.9615 67.8674 65.2625 69.6455C64.3561 70.5914 63.352 71.9046 62.2062 72.5066ZM68.2515 23.877C63.5891 24.7323 61.2347 29.5318 65.0696 33.0785C67.2312 35.0774 70.7314 34.6265 72.4769 32.3023C73.2253 31.3075 73.2532 30.1826 73.725 29.1018C74.7291 30.494 75.1753 32.193 75.3868 33.8758C76.0934 39.519 73.4322 45.0715 68.2561 47.6351C63.1638 50.1592 56.8768 49.0041 52.8582 45.0715C47.2429 39.5724 48.1214 29.8642 54.1946 25.0949C57.158 22.766 61.0929 21.6178 64.8279 22.4127C65.99 22.6591 67.4217 23.0007 68.2515 23.877Z" fill="#0B4619"/>
</svg>
