<svg xmlns="http://www.w3.org/2000/svg" version="1.1" xmlns:xlink="http://www.w3.org/1999/xlink" x="0" y="0" viewBox="0 0 511.996 511.996" style="enable-background:new 0 0 512 512" xml:space="preserve" class=""><g><g class="tail"><path fill="#605360" d="M370.36 467.893C370.36 467.893 425.822 463.658 449.931 420.002C468.262 386.806 463.032 345.086 438.158 309.587C420.433 284.29 412.956 261.575 417.671 242.473C424.084 216.492 452.567 196.189 452.754 196.076L432.83 182.23C428.945 184.565 401.73 202.022 393.98 236.662C387.532 265.479 396.146 297.053 419.589 330.508C437.217 355.667 440.769 384.086 429.094 406.527C420.254 423.513 400.048 436.562 378.581 442.481L350 475Z"></path><path fill="#3f3245" d="M378.663 476.329C413.928 469.433 443.85 450.142 458.565 421.866C476.066 388.223 471.666 346.948 446.791 311.449C429.066 286.152 422.176 263.573 426.304 244.335C431.069 222.153 449.67 210.863 449.857 210.75C457.696 206.095 460.372 195.948 455.782 188.073C451.2 180.206 441.179 177.424 433.251 181.982L432.83 182.231C436.096 191.049 434.067 201.052 427.483 208.112C420.627 215.463 413.184 226.329 410.069 240.848C404.927 264.798 412.705 291.757 433.192 320.979C454.441 351.304 458.416 386.155 443.825 414.201C432.329 436.301 408.966 452.35 379.407 459.081Z"></path></g><path fill="#605360" d="M378.581 442.481C378.581 442.481 350.575 315.504 262.925 247.332C242.4 231.368 236.536 203.449 236.536 182.5C236.536 182.5 268.572 153.07 268.572 121.655L268.572 16.734L261.518 0.254C257.247 -0.506 252.639 0.405 248.711 3.515C238.976 11.223 225.173 25.612 214.9 43.569C205.245 40.414 194.885 38.605 184.036 38.605S162.827 40.414 153.172 43.569C128.405 18.176 109.229 4.312 97.236 5.262C94.462 8.172 92.681 12.131 92.681 16.734L92.681 121.656C92.681 147.791 105.988 171.077 126.747 186.3L123.396 195.61A191 191 0 0 0 115.385 282.115L140.781 466.237C141.671 472.688 137.605 478.491 131.463 480.656A33.3 33.3 0 0 0 116.095 491.847A12.2 12.2 0 0 0 114.203 495.385L126.464 503.561L329.388 503.561C350.175 503.561 367.733 488.189 370.36 467.893Z" opacity="1" data-original="#605360" class=""></path><path class="eyes" fill="#fdd878" d="M225.565 121.656a8.3 8.3 0 0 1-8.305-8.305v-8.305a8.3 8.3 0 0 1 8.305-8.305 8.3 8.3 0 0 1 8.305 8.305v8.305a8.3 8.3 0 0 1-8.305 8.305M142.513 121.656a8.3 8.3 0 0 1-8.305-8.305v-8.305c0-4.591 3.715-8.305 8.305-8.305s8.305 3.715 8.305 8.305v8.305a8.3 8.3 0 0 1-8.305 8.305" opacity="1" data-original="#fdd878"></path><path fill="#4e3d4d" d="m188.023 167.862 14.949-19.932c2.464-3.285.12-7.973-3.986-7.973h-29.898c-4.106 0-6.45 4.688-3.986 7.973l14.949 19.932c1.992 2.658 5.979 2.658 7.972 0M51.157 171.486c-3.325 0-6.472-2.011-7.745-5.304-1.655-4.274.47-9.092 4.745-10.746 37.616-14.575 75.638-17.056 77.236-17.154 4.542-.268 8.516 3.204 8.8 7.778s-3.196 8.516-7.778 8.8c-.365.024-37.122 2.457-72.256 16.067a8.3 8.3 0 0 1-3.002.559M84.394 208.17a8.3 8.3 0 0 1-5.758-2.32 8.31 8.31 0 0 1-.227-11.744c23.91-24.867 61.315-30.609 62.897-30.836 4.599-.73 8.743 2.466 9.416 6.999s-2.457 8.751-6.991 9.432c-.333.049-33.439 5.215-53.351 25.921a8.27 8.27 0 0 1-5.986 2.548" opacity="1" data-original="#4e3d4d"></path><g fill="#4e3d4d"><path d="M379.407 459.081C381.148 334.542 315.413 266.851 277.101 238.204C261.036 226.192 251.429 207.634 250.633 187.688C259.82 191.662 269.789 197.403 277.691 205.624A8.27 8.27 0 0 0 283.677 208.171A8.3 8.3 0 0 0 289.435 205.851A8.31 8.31 0 0 0 289.662 194.107C279.749 183.794 267.531 176.807 256.492 172.102A82 82 0 0 0 266.067 158.035C279.527 160.379 296.894 164.333 313.92 170.927C314.909 171.308 315.923 171.487 316.921 171.487C320.246 171.487 323.393 169.476 324.666 166.183C326.321 161.901 324.196 157.091 319.921 155.437C303.059 148.905 286.146 144.815 272.44 142.267C274.298 135.665 275.392 128.785 275.392 121.657L275.392 16.734C275.392 7.995 268.965 1.581 261.518 0.254L261.518 77.783C250.902 62.375 234.903 50.339 215.883 43.896C239.307 58.932 254.648 83.684 254.648 111.735C254.648 121.26 252.796 130.373 249.549 138.894C245.552 138.472 243.065 138.305 242.685 138.282C238.119 137.966 234.169 141.478 233.885 146.06C233.609 150.511 236.92 154.302 241.319 154.768C239.013 158.215 236.523 161.549 233.706 164.643C229.728 163.72 227.16 163.326 226.772 163.27C222.149 162.548 218.021 165.736 217.356 170.269C216.97 172.866 217.924 175.272 219.584 177.056C204.062 188.126 184.55 194.784 163.292 194.784C152.073 194.784 141.374 192.856 131.445 189.493C146.324 199.044 164.437 204.705 184.036 204.705C195.375 204.705 206.186 202.74 216.204 199.307L216.204 200.371C216.204 221.492 226.368 241.168 243.255 253.854C281.21 282.369 345.615 348.729 345.328 470.245C345.296 484.083 334.225 495.383 320.387 495.383L235.4 495.383C238.839 485.737 247.972 478.773 258.785 478.773L316.921 478.773A8.3 8.3 0 0 0 325.226 470.468A8.3 8.3 0 0 0 316.921 462.163L266.232 462.163C230.832 443.988 214.384 401.2 233.86 359.985C238.573 350.011 246.92 342.626 255.603 335.82A8.314 8.314 0 0 0 257.124 324.293C254.383 320.627 249.16 319.897 245.494 322.638C222.274 340.076 208.956 366.71 208.956 395.73C208.956 423.464 221.276 448.731 241.914 465.825C229.863 471.219 220.801 482.135 218.1 495.383L184.04 495.383L184.04 312.674A8.3 8.3 0 0 0 175.735 304.369A8.3 8.3 0 0 0 167.43 312.674L167.43 495.387L114.203 495.387C111.603 503.112 117.523 511.997 126.464 511.997L337.691 511.997C358.477 511.997 376.036 496.625 378.663 476.329ZM143.887 47.136A97 97 0 0 1 153.173 43.568C142.9 25.612 129.097 11.222 119.362 3.515C112.195 -2.16 102.751 -0.511 97.235 5.262C105.267 11.492 120.218 24.601 134.013 44.434C136.217 47.603 140.36 48.706 143.887 47.136" fill="#3f3245" opacity="1" data-original="#000000" class=""></path></g></g></svg>