<svg xmlns="http://www.w3.org/2000/svg" version="1.1" xmlns:xlink="http://www.w3.org/1999/xlink" x="0" y="0" viewBox="0 0 511.996 511.996" style="enable-background:new 0 0 512 512" xml:space="preserve" class=""><g><path fill="#605360" d="M438.158 309.587c-17.725-25.297-25.202-48.012-20.487-67.114 6.413-25.981 34.896-46.284 35.083-46.397L432.83 182.23c-3.885 2.335-31.1 19.792-38.85 54.432-6.448 28.817 2.166 60.391 25.609 93.846 17.628 25.159 21.18 53.578 9.505 76.019-8.84 16.986-29.046 30.035-50.513 35.954 0 0-28.006-126.977-115.656-195.149-20.525-15.964-26.389-43.883-26.389-64.832 0 0 32.036-29.43 32.036-60.845V16.734L261.518.254c-4.271-.76-8.879.151-12.807 3.261-9.735 7.708-23.538 22.097-33.811 40.054-9.655-3.155-20.015-4.964-30.864-4.964s-21.209 1.809-30.864 4.964C128.405 18.176 109.229 4.312 97.236 5.262c-2.774 2.91-4.555 6.869-4.555 11.472v104.922c0 26.135 13.307 49.421 34.066 64.644l-3.351 9.31a191 191 0 0 0-8.011 86.505l25.396 184.122c.89 6.451-3.176 12.254-9.318 14.419a33.3 33.3 0 0 0-15.368 11.191 12.2 12.2 0 0 0-1.892 3.538l12.261 8.176h202.924c20.787 0 38.345-15.372 40.972-35.668 0 0 55.462-4.235 79.571-47.891 18.331-33.196 13.101-74.916-11.773-110.415" opacity="1" data-original="#605360" class=""></path><path fill="#fdd878" d="M225.565 121.656a8.3 8.3 0 0 1-8.305-8.305v-8.305a8.3 8.3 0 0 1 8.305-8.305 8.3 8.3 0 0 1 8.305 8.305v8.305a8.3 8.3 0 0 1-8.305 8.305M142.513 121.656a8.3 8.3 0 0 1-8.305-8.305v-8.305c0-4.591 3.715-8.305 8.305-8.305s8.305 3.715 8.305 8.305v8.305a8.3 8.3 0 0 1-8.305 8.305" opacity="1" data-original="#fdd878"></path><path fill="#4e3d4d" d="m188.023 167.862 14.949-19.932c2.464-3.285.12-7.973-3.986-7.973h-29.898c-4.106 0-6.45 4.688-3.986 7.973l14.949 19.932c1.992 2.658 5.979 2.658 7.972 0M51.157 171.486c-3.325 0-6.472-2.011-7.745-5.304-1.655-4.274.47-9.092 4.745-10.746 37.616-14.575 75.638-17.056 77.236-17.154 4.542-.268 8.516 3.204 8.8 7.778s-3.196 8.516-7.778 8.8c-.365.024-37.122 2.457-72.256 16.067a8.3 8.3 0 0 1-3.002.559M84.394 208.17a8.3 8.3 0 0 1-5.758-2.32 8.31 8.31 0 0 1-.227-11.744c23.91-24.867 61.315-30.609 62.897-30.836 4.599-.73 8.743 2.466 9.416 6.999s-2.457 8.751-6.991 9.432c-.333.049-33.439 5.215-53.351 25.921a8.27 8.27 0 0 1-5.986 2.548" opacity="1" data-original="#4e3d4d"></path><g fill="#4e3d4d"><path d="M446.791 311.449c-17.725-25.297-24.615-47.876-20.487-67.114 4.765-22.182 23.366-33.472 23.553-33.585 7.839-4.655 10.515-14.802 5.925-22.677-4.582-7.867-14.603-10.649-22.531-6.091l-.421.249c3.266 8.818 1.237 18.821-5.347 25.881-6.856 7.351-14.299 18.217-17.414 32.736-5.142 23.95 2.636 50.909 23.123 80.131 21.249 30.325 25.224 65.176 10.633 93.222-11.496 22.1-34.859 38.149-64.418 44.88 1.741-124.539-63.994-192.23-102.306-220.877-16.065-12.012-25.672-30.57-26.468-50.516 9.187 3.974 19.156 9.715 27.058 17.936a8.27 8.27 0 0 0 5.986 2.547 8.3 8.3 0 0 0 5.758-2.32 8.31 8.31 0 0 0 .227-11.744c-9.913-10.313-22.131-17.3-33.17-22.005a82 82 0 0 0 9.575-14.067c13.46 2.344 30.827 6.298 47.853 12.892.989.381 2.003.56 3.001.56 3.325 0 6.472-2.011 7.745-5.304 1.655-4.282-.47-9.092-4.745-10.746-16.862-6.532-33.775-10.622-47.481-13.17 1.858-6.602 2.952-13.482 2.952-20.61V16.734c0-8.739-6.427-15.153-13.874-16.48v77.529c-10.616-15.408-26.615-27.444-45.635-33.887 23.424 15.036 38.765 39.788 38.765 67.839 0 9.525-1.852 18.638-5.099 27.159-3.997-.422-6.484-.589-6.864-.612-4.566-.316-8.516 3.196-8.8 7.778-.276 4.451 3.035 8.242 7.434 8.708-2.306 3.447-4.796 6.781-7.613 9.875-3.978-.923-6.546-1.317-6.934-1.373-4.623-.722-8.751 2.466-9.416 6.999-.386 2.597.568 5.003 2.228 6.787-15.522 11.07-35.034 17.728-56.292 17.728-11.219 0-21.918-1.928-31.847-5.291 14.879 9.551 32.992 15.212 52.591 15.212 11.339 0 22.15-1.965 32.168-5.398v1.064c0 21.121 10.164 40.797 27.051 53.483 37.955 28.515 102.36 94.875 102.073 216.391-.032 13.838-11.103 25.138-24.941 25.138H235.4c3.439-9.646 12.572-16.61 23.385-16.61h58.136a8.3 8.3 0 0 0 8.305-8.305 8.3 8.3 0 0 0-8.305-8.305h-50.689c-35.4-18.175-51.848-60.963-32.372-102.178 4.713-9.974 13.06-17.359 21.743-24.165a8.314 8.314 0 0 0 1.521-11.527c-2.741-3.666-7.964-4.396-11.63-1.655-23.22 17.438-36.538 44.072-36.538 73.092 0 27.734 12.32 53.001 32.958 70.095-12.051 5.394-21.113 16.31-23.814 29.558h-34.06V312.674a8.3 8.3 0 0 0-8.305-8.305 8.3 8.3 0 0 0-8.305 8.305v182.713h-53.227c-2.6 7.725 3.32 16.61 12.261 16.61h211.227c20.786 0 38.345-15.372 40.972-35.668 35.265-6.896 65.187-26.187 79.902-54.463 17.501-33.643 13.101-74.918-11.774-110.417M143.887 47.136a97 97 0 0 1 9.286-3.568C142.9 25.612 129.097 11.222 119.362 3.515c-7.167-5.675-16.611-4.026-22.127 1.747 8.032 6.23 22.983 19.339 36.778 39.172 2.204 3.169 6.347 4.272 9.874 2.702" fill="#3f3245" opacity="1" data-original="#000000" class=""></path></g></g></svg>