<svg xmlns="http://www.w3.org/2000/svg" version="1.1" xmlns:xlink="http://www.w3.org/1999/xlink" x="0" y="0" viewBox="0 0 512.001 512.001" style="enable-background:new 0 0 512 512" xml:space="preserve"><g><path fill="#ffc433" d="M255.999 512.001a7.5 7.5 0 0 1-7.5-7.5v-50.468a7.5 7.5 0 0 1 15 0v50.468a7.5 7.5 0 0 1-7.5 7.5" opacity="1" data-original="#ffc433"></path><g fill="#848484"><path d="m243.267 38.545-7.338-5.48a7 7 0 0 0-.475-.327c-.11-.07-11.051-7.213-9.075-24.378a7.5 7.5 0 0 0-6.593-8.309c-4.112-.479-7.835 2.478-8.309 6.593-2.854 24.784 13.009 36.756 15.617 38.545l7.198 5.375a7.46 7.46 0 0 0 4.481 1.491 7.49 7.49 0 0 0 6.015-3.013 7.5 7.5 0 0 0-1.521-10.497M300.52 6.644a7.502 7.502 0 0 0-14.903 1.716c1.863 16.175-7.92 23.563-8.99 24.32l-9.453 5.346a7.5 7.5 0 0 0 7.385 13.057l9.689-5.48q.162-.092.32-.192c.778-.493 18.993-12.355 15.952-38.767" fill="#000000" opacity="1" data-original="#000000"></path></g><path fill="#848484" d="M328.575 302.98c-.893 16.189-3.655 33.531-8.077 50.793-.464 1.809-2.577 3.88-3.076 5.686-11.3 40.832-30.332 78.874-57.128 100.749a6.824 6.824 0 0 1-8.592.003c-27.12-22.086-46.734-60.533-57.958-101.812-.377-1.386-1.891-3.248-2.246-4.636-4.421-17.258-7.182-34.597-8.075-50.783a256 256 0 0 1-.202-23.596c.014-.374.568-.516.583-.891.779-18.893 3.4-37.456 7.847-55.561.424-1.732.805-3.653 1.26-5.384.101-.382-.1-.997.001-1.38 6.675-25.094 16.349-49.812 29.257-70.776h67.659c12.909 20.964 22.582 45.681 29.257 70.776.561 2.114-.08 4.606.438 6.72 4.368 17.783 7.166 34.871 8.002 53.423.032.71 1.227 2.362 1.253 3.073.29 7.855.231 15.733-.203 23.596" opacity="1" data-original="#848484"></path><path fill="#717171" d="M328.576 302.975c-.893 16.19-3.656 33.535-8.079 50.797-.305 1.191-2.048 2.906-2.369 4.096-11.182 41.461-30.59 80.119-57.792 102.308-2.543 2.074-6.236 2.006-8.742-.113-7.06-5.971-12.706-12.885-19.157-21.451 16.796-17.661 30.023-40.633 39.93-67.14.267-.714-.89-2.382-.629-3.098 9.399-25.787 15.157-53.31 16.524-78.122 1.612-29.173-2.074-58.982-9.485-86.81-5.374-20.178-12.679-40.119-22.045-58.053h33.095c12.905 20.966 22.585 45.687 29.264 70.775.114.437-.195.92-.081 1.357.436 1.678 1.038 4.268 1.449 5.947 4.422 17.987 6.977 36.045 7.777 54.817.021.493.525.604.544 1.098.289 7.855.23 15.732-.204 23.592" opacity="1" data-original="#717171"></path><path fill="#ffd250" d="M320.498 353.773c-10.932 42.661-32.016 84.835-60.099 107.862a6.94 6.94 0 0 1-8.802.001c-28.092-23.027-49.169-65.201-60.101-107.873 17.643 9.652 40.076 15.421 64.502 15.421 24.427-.001 46.857-5.77 64.5-15.411" opacity="1" data-original="#ffd250"></path><path fill="#ffc433" d="M320.498 353.773c-10.929 42.657-32.02 84.84-60.102 107.861a6.945 6.945 0 0 1-8.813-.01c-7.565-6.198-14.623-13.79-21.104-22.407 17.243-18.139 31.292-43.518 41.263-70.84 18.29-1.911 34.976-7.083 48.756-14.604" opacity="1" data-original="#ffc433"></path><path fill="#faf7f8" d="M67.925 279.97c28.642 16.006 58.5 10.776 89.289-23.092l89.353-105.286-28.53-40.361S79.92 157.006 16.788 199.992c-8.957 6.099-11.635 18.156-5.907 27.355 4.852 7.792 12.158 17.565 22.785 27.638 8.913 8.449 20.162 17.108 34.259 24.985M444.072 279.97c-28.642 16.006-58.5 10.776-89.289-23.092l-89.342-105.057 28.519-40.591s138.117 45.775 201.249 88.761c8.957 6.099 11.635 18.156 5.907 27.355-4.807 7.719-12.022 17.384-22.49 27.358-8.959 8.538-20.301 17.302-34.554 25.266" opacity="1" data-original="#faf7f8"></path><path fill="#f0eef0" d="M501.119 227.351c-4.8 7.71-12.018 17.37-22.478 27.34 1.23-7.55-1.962-15.46-8.672-20.03-47.29-32.2-145.84-77.55-192.32-98.28l16.31-25.15s138.12 45.78 201.25 88.76c8.96 6.1 11.64 18.16 5.91 27.36M10.882 227.351c4.8 7.71 12.054 17.408 22.514 27.378-1.23-7.55 1.926-15.498 8.636-20.068 47.29-32.2 145.84-77.55 192.32-98.28l-16.31-25.15s-138.12 45.78-201.25 88.76c-8.96 6.1-11.64 18.16-5.91 27.36" opacity="1" data-original="#f0eef0"></path><path fill="#848484" d="M287.625 63.422c0 17.467-14.159 31.626-31.626 31.626a31.5 31.5 0 0 1-19.787-6.953l-.026-.021c-7.203-5.797-11.813-14.686-11.813-24.652 0-15.812 11.604-28.914 26.762-31.254a32 32 0 0 1 4.864-.372c17.466 0 31.626 14.16 31.626 31.626" opacity="1" data-original="#848484"></path><path fill="#717171" d="M287.629 63.421c0 17.47-14.16 31.63-31.63 31.63a31.48 31.48 0 0 1-19.764-6.938c15.2-2.31 26.835-15.432 26.835-31.272 0-9.98-4.638-18.893-11.868-24.683 1.56-.24 3.168-.357 4.798-.357 17.469 0 31.629 14.15 31.629 31.62" opacity="1" data-original="#717171"></path><path fill="#ffd250" d="m328.77 279.384-9.684 5.985c-17.416 9.188-39.319 14.656-63.087 14.656s-45.67-5.467-63.087-14.656l-9.692-5.985c.712-19.271 3.524-38.412 8.064-56.875a351 351 0 0 1 1.628-6.341c17.416 9.188 39.319 14.656 63.087 14.656s45.67-5.468 63.087-14.656a335 335 0 0 1 1.628 6.341c4.54 18.463 7.344 37.604 8.056 56.875" opacity="1" data-original="#ffd250"></path><path fill="#ffc433" d="m328.778 279.384-9.687 5.981c-9.291 4.899-19.844 8.74-31.271 11.254.183-2.147.324-4.262.442-6.366 1.144-20.696-.378-41.705-4.014-62.099 12.808-2.471 24.592-6.582 34.843-11.988.55 2.115 1.101 4.23 1.619 6.345 4.542 18.462 7.356 37.601 8.068 56.873" opacity="1" data-original="#ffc433"></path><g fill="#e7e2e6"><path d="m220.009 120.988-79.486 56.86-45.032 7.15a7.5 7.5 0 0 0-2.836 1.071l-44.553 28.216a7.5 7.5 0 0 0-2.323 10.349 7.495 7.495 0 0 0 10.348 2.323l43.245-27.388 35.186-5.587-3.196 21.969-11.307 20.331a7.501 7.501 0 0 0 13.11 7.291l11.976-21.534a7.5 7.5 0 0 0 .867-2.566l4.402-30.255 78.327-56.032a7.5 7.5 0 0 0 1.736-10.464 7.504 7.504 0 0 0-10.464-1.734M463.895 214.286l-44.553-28.216a7.5 7.5 0 0 0-2.837-1.071l-45.031-7.15-75.904-54.299a7.501 7.501 0 0 0-8.727 12.2l74.745 53.469 4.401 30.255c.131.901.425 1.771.867 2.566l11.977 21.534a7.5 7.5 0 0 0 10.201 2.909 7.5 7.5 0 0 0 2.909-10.2l-11.308-20.331-3.196-21.969 35.185 5.587 43.245 27.388a7.496 7.496 0 0 0 10.349-2.323 7.5 7.5 0 0 0-2.323-10.349" fill="#000000" opacity="1" data-original="#000000"></path></g><path fill="#848484" d="M223.056 123.656a7.5 7.5 0 0 1-2.152-.316l-50.863-15.212a7.5 7.5 0 0 1-3.727-2.524L132.71 63.249a7.5 7.5 0 0 1 11.751-9.323l32.138 40.507 48.603 14.537a7.5 7.5 0 0 1-2.146 14.686M291.203 122.98a7.5 7.5 0 0 1-2.147-14.687l46.341-13.86 32.139-40.507a7.5 7.5 0 0 1 11.75 9.323l-33.604 42.355a7.5 7.5 0 0 1-3.726 2.524l-48.601 14.536a7.5 7.5 0 0 1-2.152.316" opacity="1" data-original="#848484"></path><path fill="#ffd250" d="M302.507 119.848c0 18.58-20.822 33.642-46.508 33.642-7.87 0-15.283-1.414-21.78-3.909-14.71-5.65-24.728-16.845-24.728-29.732 0-17.416 18.295-31.74 41.741-33.467a65 65 0 0 1 4.767-.175c25.686-.001 46.508 15.061 46.508 33.641" opacity="1" data-original="#ffd250"></path><path fill="#ffc433" d="M302.509 119.851c0 18.58-20.82 33.64-46.51 33.64-7.86 0-15.267-1.412-21.757-3.902 19.3-4.48 33.387-18.568 33.387-35.258 0-11.19-6.349-21.224-16.349-27.954 1.55-.11 3.129-.166 4.719-.166 25.69 0 46.51 15.06 46.51 33.64" opacity="1" data-original="#ffc433"></path></g></svg>